<?xml version="1.0" standalone="no"?>
<!DOCTYPE svg PUBLIC "-//W3C//DTD SVG 20010904//EN"
 "http://www.w3.org/TR/2001/REC-SVG-20010904/DTD/svg10.dtd">
<svg version="1.0" xmlns="http://www.w3.org/2000/svg"
 width="750.000000pt" height="550.000000pt" viewBox="0 0 750.000000 550.000000"
 preserveAspectRatio="xMidYMid meet">

<g transform="translate(0.000000,550.000000) scale(0.100000,-0.100000)"
fill="#000000" stroke="none">
<path d="M1920 5413 c-167 -7 -359 -42 -513 -94 -155 -52 -343 -160 -351 -202
-3 -12 -7 -37 -10 -55 -8 -48 -8 -503 0 -609 l7 -90 -79 -47 c-174 -105 -294
-211 -294 -259 0 -27 57 -65 117 -78 136 -28 526 -7 843 46 l35 6 -39 -22
c-60 -33 -139 -117 -171 -183 -36 -74 -38 -153 -5 -241 42 -112 241 -279 410
-345 208 -80 439 -62 580 46 150 114 230 368 160 509 -32 66 -109 142 -196
193 -103 60 -163 81 -277 96 -113 15 -115 13 73 50 156 30 329 72 395 96 167
61 279 111 350 155 171 106 221 171 163 209 -27 18 -169 52 -253 61 -117 12
-125 14 -125 37 0 43 -51 350 -79 469 -32 144 -33 144 -163 189 -141 49 -358
73 -578 63z"/>
<path d="M2786 3439 c-51 -44 -131 -156 -168 -235 -60 -125 -39 -222 56 -265
138 -63 421 56 500 210 24 45 20 109 -10 168 -51 104 -140 153 -275 153 -62 0
-72 -3 -103 -31z"/>
<path d="M2045 2977 c-118 -40 -162 -86 -152 -160 7 -54 45 -90 144 -139 76
-38 91 -41 181 -46 129 -6 184 11 242 75 39 42 42 48 37 90 -7 61 -49 110
-130 152 -62 32 -75 35 -175 38 -70 2 -121 -2 -147 -10z"/>
<path d="M3164 2461 c-32 -21 -79 -59 -104 -85 l-44 -46 19 -36 c19 -36 74
-96 151 -164 36 -32 117 -173 322 -560 21 -41 73 -131 114 -200 41 -69 121
-204 178 -300 56 -96 109 -185 116 -197 8 -12 40 -34 72 -49 80 -36 330 -125
370 -131 l33 -5 -6 123 c-6 133 -21 270 -35 332 -6 30 -58 101 -100 137 -3 3
-36 41 -74 85 -38 44 -112 125 -165 180 -230 240 -627 706 -655 769 -74 165
-87 186 -116 186 -9 0 -43 -17 -76 -39z"/>
<path d="M2815 1799 c-22 -11 -82 -43 -133 -71 -86 -46 -95 -48 -111 -34 -10
9 -25 16 -35 16 -9 0 -27 5 -38 11 -51 27 -196 -5 -331 -72 -139 -70 -277
-185 -277 -231 0 -11 -5 -29 -12 -41 -6 -12 -11 -32 -12 -45 -1 -20 -21 -34
-131 -90 -152 -78 -175 -103 -175 -188 0 -49 16 -86 225 -503 191 -383 229
-452 254 -466 60 -31 89 -22 349 109 468 236 495 251 477 266 -39 32 -138 201
-195 333 -113 258 -167 354 -253 445 -59 61 -124 98 -245 136 -87 27 -127 32
-152 16 -9 -5 -19 -5 -27 2 -44 36 27 98 217 190 114 56 149 68 191 68 33 0
41 -4 49 -25 5 -14 17 -25 25 -25 24 0 94 -38 155 -85 146 -112 237 -251 281
-425 42 -168 148 -339 271 -440 l37 -31 73 37 c144 73 188 114 188 177 0 18
-61 146 -154 325 -84 164 -181 354 -214 424 -104 215 -186 275 -297 217z
m-735 -704 c0 -8 -7 -15 -15 -15 -8 0 -15 7 -15 15 0 8 7 15 15 15 8 0 15 -7
15 -15z m250 -399 c0 -2 2 -10 5 -18 4 -9 -4 -13 -25 -14 -36 -1 -60 -20 -60
-45 0 -28 -19 -23 -26 6 -7 30 -10 27 41 53 38 20 65 27 65 18z m38 -81 c19
-41 14 -53 -8 -20 -22 32 -25 45 -12 45 5 0 14 -11 20 -25z m-93 -56 c22 -41
13 -48 -14 -11 -23 33 -26 42 -11 42 5 0 17 -14 25 -31z"/>
</g>
</svg>
